HIERARCHY
ROOT Hips
{
 OFFSET 0.000000 0.000000 0.000000
 CHANNELS 6 Xposition Yposition Zposition Yrotation Xrotation Zrotation
 JOINT Chest
 {
  OFFSET 0.000000 9.585900 0.002600
  CHANNELS 3 Yrotation Xrotation Zrotation
  JOINT Chest2
  {
   OFFSET 0.000000 9.601200 -0.005300
   CHANNELS 3 Yrotation Xrotation Zrotation
   JOINT Chest3
   {
    OFFSET 0.000000 9.561800 0.000000
    CHANNELS 3 Yrotation Xrotation Zrotation
    JOINT Chest4
    {
     OFFSET 0.000000 9.552100 0.000000
     CHANNELS 3 Yrotation Xrotation Zrotation
     JOINT Neck
     {
      OFFSET 0.000000 14.453000 0.000000
      CHANNELS 3 Yrotation Xrotation Zrotation
      JOINT Head
      {
       OFFSET 0.000000 8.936500 -0.011300
       CHANNELS 3 Yrotation Xrotation Zrotation
       End Site
       {
        OFFSET 0.000000 17.073600 -0.006000
       }
      }
     }
     JOINT RightCollar
     {
      OFFSET -2.921100 9.558500 0.000000
      CHANNELS 3 Yrotation Xrotation Zrotation
      JOINT RightShoulder
      {
       OFFSET -13.519700 0.000000 0.000000
       CHANNELS 3 Yrotation Xrotation Zrotation
       JOINT RightElbow
       {
        OFFSET 0.000000 -29.696600 0.000000
        CHANNELS 3 Yrotation Xrotation Zrotation
        JOINT RightWrist
        {
         OFFSET 0.000000 -24.004700 0.000000
         CHANNELS 3 Yrotation Xrotation Zrotation
         End Site
         {
          OFFSET 0.000000 -17.728500 0.000000
         }
        }
       }
      }
     }
     JOINT LeftCollar
     {
      OFFSET 2.921100 9.558500 0.000000
      CHANNELS 3 Yrotation Xrotation Zrotation
      JOINT LeftShoulder
      {
       OFFSET 13.519700 0.000000 0.000000
       CHANNELS 3 Yrotation Xrotation Zrotation
       JOINT LeftElbow
       {
        OFFSET 0.000000 -29.696600 0.000000
        CHANNELS 3 Yrotation Xrotation Zrotation
        JOINT LeftWrist
        {
         OFFSET 0.000000 -24.004700 0.000000
         CHANNELS 3 Yrotation Xrotation Zrotation
         End Site
         {
          OFFSET 0.000000 -17.728500 0.000000
         }
        }
       }
      }
     }
    }
   }
  }
 }
 JOINT RightHip
 {
  OFFSET -7.771700 -0.012900 -0.001300
  CHANNELS 3 Yrotation Xrotation Zrotation
  JOINT RightKnee
  {
   OFFSET 0.000000 -40.869800 0.001200
   CHANNELS 3 Yrotation Xrotation Zrotation
   JOINT RightAnkle
   {
    OFFSET 0.000000 -39.717900 0.002100
    CHANNELS 3 Yrotation Xrotation Zrotation
    JOINT RightToe
    {
     OFFSET 0.000000 -4.965400 11.033500
     CHANNELS 3 Yrotation Xrotation Zrotation
     End Site
     {
      OFFSET 0.000000 -1.423100 5.872300
     }
    }
   }
  }
 }
 JOINT LeftHip
 {
  OFFSET 7.771700 -0.012900 -0.001300
  CHANNELS 3 Yrotation Xrotation Zrotation
  JOINT LeftKnee
  {
   OFFSET 0.000000 -40.869800 0.001200
   CHANNELS 3 Yrotation Xrotation Zrotation
   JOINT LeftAnkle
   {
    OFFSET 0.000000 -39.717900 0.002100
    CHANNELS 3 Yrotation Xrotation Zrotation
    JOINT LeftToe
    {
     OFFSET 0.000000 -4.965400 11.033500
     CHANNELS 3 Yrotation Xrotation Zrotation
     End Site
     {
      OFFSET 0.000000 -1.423100 5.872300
     }
    }
   }
  }
 }
}
MOTION
Frames: 16
Frame Time: 0.008333
0.000000 85.388000 0.000000 0.000000 -5.767877 0.000000 0.000000 11.653817 0.000000 0.000000 -5.885947 0.000000 0.000000 -0.000000 0.000000 0.000000 -0.000000 0.000000 0.000000 12.528835 0.000000 0.000000 0.711642 0.000000 0.000000 -0.000000 0.000000 0.000000 0.000000 -90.000000 0.000000 -2.309062 0.000000 0.000000 2.309062 0.000000 0.000000 -0.000000 0.000000 0.000000 -0.000000 90.000000 0.000000 -2.309062 0.000000 0.000000 2.309062 0.000000 0.000000 8.520406 0.000000 0.000000 1.905762 0.000000 -0.000000 -4.658285 0.000000 0.000000 -0.000000 0.000000 0.000000 8.520406 0.000000 0.000000 1.905762 0.000000 -0.000000 -4.658285 0.000000 0.000000 -0.000000 0.000000
-20.084349 57.963848 13.462889 175.563866 -49.405922 -2.177827 3.163845 20.835923 3.613290 1.578183 11.947005 1.899447 2.047520 14.924636 2.440633 1.578103 11.947069 1.899339 -1.628832 19.269809 -1.169574 -2.658807 -0.032264 -1.612316 1.877256 1.914097 0.883879 3.159269 -17.785331 -9.679890 -16.190799 -47.882143 63.878280 13.059464 11.929895 -10.092489 -9.570468 1.405890 -1.176095 -5.261740 -20.107499 8.013545 54.786661 -63.890485 -92.172191 -12.735653 19.931507 -5.945080 2.275152 -22.686672 -2.950419 -32.789109 73.721703 -37.161685 6.445924 -13.590459 10.817120 0.018366 -0.056210 -0.064371 -2.634996 -19.646689 7.730693 84.756272 84.178320 84.087406 -0.410741 -22.196741 -15.960385 0.019246 0.037613 -0.039133
-20.072755 57.962001 13.458953 175.455005 -49.368295 -2.097856 3.136482 20.838585 3.604879 1.560965 11.939639 1.897634 2.025824 14.915560 2.437702 1.560873 11.939721 1.897568 -1.618577 19.242993 -1.258249 -2.612435 -0.083029 -1.777255 1.904899 1.902875 0.882629 3.274101 -17.803654 -9.706414 -16.060772 -48.015637 63.729980 13.255942 12.045169 -9.923840 -9.542552 1.392901 -1.180008 -5.184460 -20.162102 8.054561 55.928510 -63.840903 -93.833085 -13.261341 19.852635 -7.783870 2.324134 -22.738925 -2.955491 -32.795699 73.736670 -37.148385 6.460328 -13.598496 10.809959 0.013916 -0.052319 -0.072095 -2.621582 -19.656166 7.698633 84.681156 84.137310 84.012235 -0.362218 -22.219000 -16.003887 0.003582 0.055600 -0.047333
-20.054976 57.962578 13.452383 175.395891 -49.343257 -2.079027 3.085978 20.857654 3.622470 1.543080 11.931909 1.895441 2.003368 14.906033 2.434316 1.543059 11.931958 1.895470 -1.618610 19.199887 -1.343313 -2.541909 -0.147278 -1.952561 1.936241 1.885606 0.880709 3.382383 -17.801884 -9.750807 -15.956137 -48.150375 63.619571 13.449780 12.153261 -9.764810 -9.471711 1.377562 -1.230720 -5.130780 -20.215044 8.127062 56.972094 -63.650354 -95.446960 -13.603541 19.691562 -9.423099 2.331558 -22.776125 -2.929989 -32.826642 73.749058 -37.156945 6.457818 -13.596235 10.795143 0.022603 -0.057730 -0.071478 -2.626227 -19.663675 7.700574 84.704734 84.135101 84.081997 -0.322673 -22.237712 -16.074582 0.012408 0.054240 -0.026663
-20.039727 57.960764 13.446441 175.323018 -49.297136 -2.024868 3.034534 20.858526 3.612546 1.577172 11.906807 1.880472 1.935643 14.911009 2.456441 1.525073 11.924050 1.893581 -1.599588 19.153268 -1.432457 -2.479134 -0.234658 -2.121053 1.968735 1.864902 0.877052 3.486648 -17.789131 -9.809746 -15.867523 -48.280147 63.538687 13.639383 12.250997 -9.616929 -9.439244 1.357911 -1.214140 -4.984908 -20.274680 8.110484 57.870569 -63.302951 -96.944723 -13.805740 19.473874 -10.870949 2.309332 -22.856680 -2.928030 -32.788680 73.788904 -37.156885 6.478015 -13.576781 10.796042 0.012934 -0.084747 -0.085046 -2.597969 -19.700620 7.687127 84.729114 84.139785 84.148688 -0.296642 -22.247648 -16.121599 0.031190 0.047263 -0.028138
-20.025659 57.957088 13.441088 175.209926 -49.235558 -1.925792 3.006790 20.842885 3.588439 1.532490 11.907893 1.884930 1.935746 14.892961 2.440976 1.506947 11.915899 1.891691 -1.576745 19.099504 -1.520783 -2.409386 -0.335041 -2.289357 2.000945 1.846754 0.872935 3.588222 -17.765918 -9.895688 -15.820302 -48.402210 63.512705 13.830020 12.343226 -9.473125 -9.406635 1.334990 -1.197522 -4.813032 -20.330020 8.081456 58.539079 -62.796402 -98.236327 -13.911847 19.205223 -12.141634 2.334545 -22.946778 -2.940409 -32.778053 73.819279 -37.172519 6.493619 -13.573031 10.792081 0.011752 -0.094339 -0.100274 -2.563831 -19.742512 7.657583 84.697017 84.122708 84.118914 -0.269122 -22.265874 -16.142031 0.035846 0.054751 -0.047226
-20.010510 57.949042 13.439012 175.050702 -49.139400 -1.794589 3.056343 20.767402 3.569215 1.450900 11.926640 1.904524 1.934787 14.876148 2.424683 1.488978 11.907727 1.889300 -1.550082 19.041426 -1.606118 -2.333250 -0.443123 -2.453433 2.030389 1.835756 0.869063 3.659070 -17.788494 -9.883062 -15.643809 -48.497954 63.353712 14.023921 12.428979 -9.329241 -9.366024 1.312011 -1.203985 -4.641861 -20.377491 8.071046 58.949862 -62.139322 -99.311520 -13.937525 18.893755 -13.211864 2.398586 -23.071600 -2.957307 -32.870045 73.847137 -37.240880 6.502602 -13.596465 10.741146 0.030597 -0.079672 -0.084723 -2.503387 -19.821035 7.640469 84.653610 84.102054 84.055584 -0.231031 -22.276930 -16.163383 0.004221 0.067044 -0.047631
-19.992057 57.946304 13.432137 174.967745 -49.084080 -1.735008 3.003075 20.764166 3.567455 1.454011 11.908828 1.894412 1.913755 14.866411 2.420946 1.518940 11.899730 1.852582 -1.551820 18.981395 -1.640552 -2.254678 -0.554444 -2.609908 2.010467 1.828497 0.908879 3.727720 -17.797045 -9.891387 -15.510507 -48.590015 63.238605 14.210518 12.507299 -9.188221 -9.375215 1.296373 -1.166749 -4.466589 -20.420300 8.057987 59.161536 -61.357261 -100.251612 -13.890776 18.594568 -14.041917 2.419489 -23.144987 -2.952260 -32.905370 73.868125 -37.273483 6.515000 -13.601686 10.719509 0.024626 -0.082380 -0.076565 -2.470567 -19.867336 7.637380 84.689476 84.111121 84.120725 -0.213613 -22.285174 -16.193632 -0.003046 0.060580 -0.037274
-19.970092 57.945242 13.423689 174.880880 -49.043726 -1.690968 2.964873 20.770669 3.587814 1.457616 11.892277 1.884820 1.895167 14.856874 2.417804 1.479625 11.891935 1.867842 -1.505773 18.921822 -1.740443 -2.175551 -0.665704 -2.758431 2.052109 1.830031 0.881948 3.801622 -17.796170 -9.929135 -15.433286 -48.635149 63.170989 14.421068 12.569079 -9.053876 -9.322319 1.276853 -1.192448 -4.297113 -20.458309 8.039115 59.316526 -60.491120 -101.183113 -13.750270 18.371742 -14.641718 2.456704 -23.194592 -2.928788 -32.958899 73.878047 -37.309706 6.533081 -13.615473 10.697225 0.013839 -0.076316 -0.064891 -2.474146 -19.884945 7.635371 84.697118 84.112004 84.179625 -0.176417 -22.303918 -16.277814 0.024515 0.055006 -0.029056
-19.955652 57.942275 13.415362 174.784432 -48.992802 -1.594869 2.937472 20.754933 3.560192 1.465619 11.879715 1.876570 1.860894 14.849984 2.426625 1.444625 11.884020 1.883179 -1.460057 18.862782 -1.835217 -2.094190 -0.774889 -2.900045 2.118345 1.839342 0.816906 3.840819 -17.793577 -9.955601 -15.403330 -48.675733 63.149185 14.618491 12.630717 -8.933692 -9.275968 1.263541 -1.216620 -4.136891 -20.486652 8.012759 59.502904 -59.574581 -102.156850 -13.499728 18.219190 -15.055732 2.492338 -23.270670 -2.949532 -33.001534 73.907048 -37.364819 6.546595 -13.615000 10.684957 -0.000607 -0.080933 -0.047306 -2.459282 -19.912302 7.604495 84.628346 84.093735 84.090462 -0.146842 -22.314925 -16.306100 0.009115 0.063386 -0.031157
-19.941548 57.938452 13.407136 174.690333 -48.939059 -1.499767 2.910358 20.733879 3.531063 1.454167 11.870460 1.875210 1.846370 14.838550 2.424459 1.433173 11.874771 1.881798 -1.426012 18.805077 -1.902342 -2.009852 -0.881707 -3.033699 2.111865 1.844729 0.832479 3.930222 -17.788342 -9.996241 -15.324075 -48.743466 63.073381 14.783675 12.710239 -8.824249 -9.255672 1.256020 -1.220518 -3.982416 -20.502051 7.978987 59.644843 -58.639844 -103.055928 -13.171819 18.059851 -15.337260 2.528423 -23.349499 -2.970893 -33.037038 73.936792 -37.415972 6.553031 -13.615789 10.677730 0.002190 -0.086197 -0.045183 -2.435423 -19.946884 7.574227 84.573387 84.079894 84.023087 -0.127179 -22.325602 -16.323463 0.009400 0.068749 -0.044944
-19.922433 57.934525 13.398997 174.592891 -48.888451 -1.434198 2.903205 20.713496 3.536607 1.422563 11.865317 1.880258 1.850700 14.823532 2.410738 1.422561 11.865353 1.880242 -1.388223 18.747581 -1.963282 -1.920533 -0.987905 -3.157366 2.104413 1.849656 0.849071 4.015814 -17.784148 -9.985865 -15.167352 -48.882596 62.908759 14.869449 12.802387 -8.723818 -9.240280 1.245347 -1.224642 -3.832872 -20.504783 7.941144 59.648599 -57.709525 -103.751427 -12.812660 17.825775 -15.528427 2.555428 -23.427920 -2.955332 -33.060226 73.963671 -37.462950 6.579417 -13.602959 10.691018 -0.015863 -0.105047 -0.063554 -2.419789 -19.978289 7.564900 84.646291 84.065725 84.130063 -0.103102 -22.351566 -16.377780 0.033040 0.069677 -0.051533
-19.905271 57.931936 13.388764 174.490555 -48.853741 -1.355164 2.900504 20.708895 3.531908 1.413155 11.856472 1.878513 1.838698 14.812566 2.408149 1.413117 11.856506 1.878468 -1.348091 18.723070 -2.026252 -1.826204 -1.125337 -3.260253 2.112851 1.855783 0.846116 4.085276 -17.777417 -10.018002 -15.109887 -48.945410 62.837117 15.003091 12.868832 -8.621634 -9.228185 1.233202 -1.228810 -3.692786 -20.500889 7.902183 59.530940 -56.800334 -104.253987 -12.426371 17.512376 -15.631355 2.591261 -23.486855 -2.949379 -33.115275 73.994223 -37.526990 6.606156 -13.574179 10.676110 -0.023384 -0.150013 -0.072534 -2.393920 -19.995530 7.548605 84.709366 84.050473 84.213134 -0.087609 -22.391029 -16.428479 0.057697 0.085776 -0.045472
-19.888508 57.929229 13.377920 174.431023 -48.822503 -1.309557 2.876989 20.707622 3.530375 1.405574 11.848246 1.876910 1.829098 14.802278 2.405848 1.430077 11.851111 1.853177 -1.320644 18.648356 -2.038457 -1.732080 -1.209533 -3.365130 2.089904 1.854589 0.871746 4.140146 -17.779295 -10.032785 -15.033085 -48.994678 62.754714 15.128482 12.931253 -8.533081 -9.247077 1.223911 -1.201481 -3.565262 -20.496580 7.862134 59.375552 -55.931325 -104.656858 -11.991969 17.160799 -15.621325 2.600873 -23.542787 -2.936891 -33.180056 74.025743 -37.603754 6.609368 -13.568734 10.661658 -0.015755 -0.165581 -0.064905 -2.393087 -20.009165 7.535675 84.759097 84.034306 84.277137 -0.066429 -22.408211 -16.475071 0.057793 0.086316 -0.038621
-19.874150 57.920515 13.371491 174.298035 -48.749387 -1.202011 2.906132 20.662998 3.523478 1.399612 11.840528 1.875306 1.844261 14.789349 2.387181 1.422487 11.846284 1.853531 -1.284834 18.580086 -2.049223 -1.643751 -1.289043 -3.457064 2.064490 1.852284 0.893089 4.179943 -17.787667 -10.029722 -14.937071 -49.031396 62.665513 15.244915 12.990030 -8.465495 -9.265420 1.217313 -1.175108 -3.454091 -20.488266 7.822170 59.225790 -55.112847 -105.022463 -11.517770 16.807035 -15.472486 2.635680 -23.665612 -2.924220 -33.289907 74.082391 -37.743107 6.600456 -13.568276 10.631937 -0.001297 -0.180746 -0.049521 -2.339975 -20.066876 7.517666 84.811754 84.020335 84.346156 -0.050964 -22.426974 -16.519793 0.052374 0.088464 -0.030237
-19.861517 57.914311 13.362146 174.208277 -48.699967 -1.121222 2.933511 20.627800 3.509841 1.372544 11.846685 1.884262 1.861016 14.776131 2.371041 1.399329 11.840200 1.875325 -1.241861 18.533733 -2.087393 -1.552717 -1.379444 -3.535093 2.052913 1.851828 0.886094 4.214927 -17.793683 -10.033040 -14.859407 -49.045910 62.601582 15.363747 13.040388 -8.413293 -9.248778 1.211674 -1.200873 -3.391421 -20.470520 7.812402 59.102060 -54.356293 -105.372442 -11.006400 16.461817 -15.184713 2.673484 -23.741016 -2.930285 -33.362516 74.113577 -37.828800 6.610848 -13.576925 10.619443 -0.004738 -0.183034 -0.043927 -2.310001 -20.100281 7.492636 84.837785 84.005238 84.379838 -0.037595 -22.445170 -16.529305 0.048103 0.092991 -0.046236
